<mxfile host="app.diagrams.net" modified="2022-01-26T13:29:19.116Z" agent="5.0 (Windows NT 10.0; Win64; x64) AppleWebKit/537.36 (KHTML, like Gecko) Chrome/97.0.4692.99 Safari/537.36" etag="VmM5YKZrnTpCjZVRcO4S" version="16.4.6" type="github">
  <diagram id="oCkNUMC2xpgX1AuUsGys" name="Page-1">
    <mxGraphModel dx="1278" dy="589" grid="1" gridSize="10" guides="1" tooltips="1" connect="1" arrows="1" fold="1" page="1" pageScale="1" pageWidth="850" pageHeight="1100" math="0" shadow="0">
      <root>
        <mxCell id="0" />
        <mxCell id="1" parent="0" />
        <mxCell id="4uzhlLhh2RCcG2w5_e5X-1" value="" style="rounded=0;whiteSpace=wrap;html=1;fontStyle=1" vertex="1" parent="1">
          <mxGeometry x="70" y="20" width="770" height="60" as="geometry" />
        </mxCell>
        <mxCell id="4uzhlLhh2RCcG2w5_e5X-2" value="PHASE 1&lt;br&gt;Formation" style="text;html=1;strokeColor=none;fillColor=none;align=center;verticalAlign=middle;whiteSpace=wrap;rounded=0;fontStyle=1" vertex="1" parent="1">
          <mxGeometry x="70" y="20" width="90" height="60" as="geometry" />
        </mxCell>
        <mxCell id="4uzhlLhh2RCcG2w5_e5X-3" value="PHASE 2&lt;br&gt;Requirement/Planning" style="text;html=1;strokeColor=none;fillColor=none;align=center;verticalAlign=middle;whiteSpace=wrap;rounded=0;fontStyle=1" vertex="1" parent="1">
          <mxGeometry x="180" y="20" width="100" height="60" as="geometry" />
        </mxCell>
        <mxCell id="4uzhlLhh2RCcG2w5_e5X-4" value="PHASE 3&lt;br&gt;Design" style="text;html=1;strokeColor=none;fillColor=none;align=center;verticalAlign=middle;whiteSpace=wrap;rounded=0;fontStyle=1" vertex="1" parent="1">
          <mxGeometry x="285" y="20" width="100" height="60" as="geometry" />
        </mxCell>
        <mxCell id="4uzhlLhh2RCcG2w5_e5X-5" value="PHASE 4&lt;br&gt;Construct" style="text;html=1;strokeColor=none;fillColor=none;align=center;verticalAlign=middle;whiteSpace=wrap;rounded=0;fontStyle=1" vertex="1" parent="1">
          <mxGeometry x="391" y="20" width="100" height="60" as="geometry" />
        </mxCell>
        <mxCell id="4uzhlLhh2RCcG2w5_e5X-6" value="PHASE 5&lt;br&gt;Test" style="text;html=1;strokeColor=none;fillColor=none;align=center;verticalAlign=middle;whiteSpace=wrap;rounded=0;fontStyle=1" vertex="1" parent="1">
          <mxGeometry x="500" y="20" width="100" height="60" as="geometry" />
        </mxCell>
        <mxCell id="4uzhlLhh2RCcG2w5_e5X-7" value="PHASE 6&lt;br&gt;Product release" style="text;html=1;strokeColor=none;fillColor=none;align=center;verticalAlign=middle;whiteSpace=wrap;rounded=0;fontStyle=1" vertex="1" parent="1">
          <mxGeometry x="610" y="20" width="100" height="60" as="geometry" />
        </mxCell>
        <mxCell id="4uzhlLhh2RCcG2w5_e5X-8" value="PHASE 7&lt;br&gt;Post Implementation&amp;nbsp;" style="text;html=1;strokeColor=none;fillColor=none;align=center;verticalAlign=middle;whiteSpace=wrap;rounded=0;fontStyle=1" vertex="1" parent="1">
          <mxGeometry x="720" y="20" width="120" height="60" as="geometry" />
        </mxCell>
        <mxCell id="4uzhlLhh2RCcG2w5_e5X-9" value="" style="edgeStyle=orthogonalEdgeStyle;rounded=0;orthogonalLoop=1;jettySize=auto;html=1;fontStyle=1" edge="1" parent="1" source="4uzhlLhh2RCcG2w5_e5X-11" target="4uzhlLhh2RCcG2w5_e5X-14">
          <mxGeometry relative="1" as="geometry" />
        </mxCell>
        <mxCell id="4uzhlLhh2RCcG2w5_e5X-10" value="" style="edgeStyle=orthogonalEdgeStyle;rounded=0;orthogonalLoop=1;jettySize=auto;html=1;endArrow=classic;endFill=1;fontStyle=1" edge="1" parent="1" source="4uzhlLhh2RCcG2w5_e5X-11" target="4uzhlLhh2RCcG2w5_e5X-29">
          <mxGeometry relative="1" as="geometry" />
        </mxCell>
        <mxCell id="4uzhlLhh2RCcG2w5_e5X-11" value="Project Initiation&amp;nbsp;" style="rounded=0;whiteSpace=wrap;html=1;fontStyle=1" vertex="1" parent="1">
          <mxGeometry x="70" y="120" width="90" height="60" as="geometry" />
        </mxCell>
        <mxCell id="4uzhlLhh2RCcG2w5_e5X-12" value="" style="edgeStyle=orthogonalEdgeStyle;rounded=0;orthogonalLoop=1;jettySize=auto;html=1;fontStyle=1" edge="1" parent="1" source="4uzhlLhh2RCcG2w5_e5X-14" target="4uzhlLhh2RCcG2w5_e5X-17">
          <mxGeometry relative="1" as="geometry" />
        </mxCell>
        <mxCell id="4uzhlLhh2RCcG2w5_e5X-13" value="" style="edgeStyle=orthogonalEdgeStyle;rounded=0;orthogonalLoop=1;jettySize=auto;html=1;entryX=0.5;entryY=0;entryDx=0;entryDy=0;startArrow=none;startFill=0;endArrow=classic;endFill=1;fontStyle=1" edge="1" parent="1" source="4uzhlLhh2RCcG2w5_e5X-14" target="4uzhlLhh2RCcG2w5_e5X-47">
          <mxGeometry relative="1" as="geometry" />
        </mxCell>
        <mxCell id="4uzhlLhh2RCcG2w5_e5X-14" value="Requirements Definition" style="rounded=0;whiteSpace=wrap;html=1;fontStyle=1" vertex="1" parent="1">
          <mxGeometry x="180" y="120" width="90" height="60" as="geometry" />
        </mxCell>
        <mxCell id="4uzhlLhh2RCcG2w5_e5X-15" value="" style="edgeStyle=orthogonalEdgeStyle;rounded=0;orthogonalLoop=1;jettySize=auto;html=1;fontStyle=1" edge="1" parent="1" source="4uzhlLhh2RCcG2w5_e5X-17" target="4uzhlLhh2RCcG2w5_e5X-20">
          <mxGeometry relative="1" as="geometry" />
        </mxCell>
        <mxCell id="4uzhlLhh2RCcG2w5_e5X-16" value="" style="edgeStyle=orthogonalEdgeStyle;rounded=0;orthogonalLoop=1;jettySize=auto;html=1;fontStyle=1" edge="1" parent="1" source="4uzhlLhh2RCcG2w5_e5X-17" target="4uzhlLhh2RCcG2w5_e5X-42">
          <mxGeometry relative="1" as="geometry" />
        </mxCell>
        <mxCell id="4uzhlLhh2RCcG2w5_e5X-17" value="Design" style="rounded=0;whiteSpace=wrap;html=1;fontStyle=1" vertex="1" parent="1">
          <mxGeometry x="290" y="120" width="90" height="60" as="geometry" />
        </mxCell>
        <mxCell id="4uzhlLhh2RCcG2w5_e5X-18" value="" style="edgeStyle=orthogonalEdgeStyle;rounded=0;orthogonalLoop=1;jettySize=auto;html=1;fontStyle=1" edge="1" parent="1" source="4uzhlLhh2RCcG2w5_e5X-20" target="4uzhlLhh2RCcG2w5_e5X-23">
          <mxGeometry relative="1" as="geometry" />
        </mxCell>
        <mxCell id="4uzhlLhh2RCcG2w5_e5X-19" value="" style="edgeStyle=orthogonalEdgeStyle;rounded=0;orthogonalLoop=1;jettySize=auto;html=1;fontStyle=1" edge="1" parent="1" source="4uzhlLhh2RCcG2w5_e5X-20" target="4uzhlLhh2RCcG2w5_e5X-39">
          <mxGeometry relative="1" as="geometry" />
        </mxCell>
        <mxCell id="4uzhlLhh2RCcG2w5_e5X-20" value="Construct" style="rounded=0;whiteSpace=wrap;html=1;fontStyle=1" vertex="1" parent="1">
          <mxGeometry x="400" y="120" width="90" height="60" as="geometry" />
        </mxCell>
        <mxCell id="4uzhlLhh2RCcG2w5_e5X-21" value="" style="edgeStyle=orthogonalEdgeStyle;rounded=0;orthogonalLoop=1;jettySize=auto;html=1;fontStyle=1" edge="1" parent="1" source="4uzhlLhh2RCcG2w5_e5X-23" target="4uzhlLhh2RCcG2w5_e5X-26">
          <mxGeometry relative="1" as="geometry" />
        </mxCell>
        <mxCell id="4uzhlLhh2RCcG2w5_e5X-22" value="" style="edgeStyle=orthogonalEdgeStyle;rounded=0;orthogonalLoop=1;jettySize=auto;html=1;entryX=0.5;entryY=0;entryDx=0;entryDy=0;fontStyle=1" edge="1" parent="1" source="4uzhlLhh2RCcG2w5_e5X-23" target="4uzhlLhh2RCcG2w5_e5X-36">
          <mxGeometry relative="1" as="geometry" />
        </mxCell>
        <mxCell id="4uzhlLhh2RCcG2w5_e5X-23" value="Test" style="rounded=0;whiteSpace=wrap;html=1;fontStyle=1" vertex="1" parent="1">
          <mxGeometry x="510" y="120" width="100" height="60" as="geometry" />
        </mxCell>
        <mxCell id="4uzhlLhh2RCcG2w5_e5X-24" value="" style="edgeStyle=orthogonalEdgeStyle;rounded=0;orthogonalLoop=1;jettySize=auto;html=1;fontStyle=1" edge="1" parent="1" source="4uzhlLhh2RCcG2w5_e5X-26" target="4uzhlLhh2RCcG2w5_e5X-28">
          <mxGeometry relative="1" as="geometry" />
        </mxCell>
        <mxCell id="4uzhlLhh2RCcG2w5_e5X-25" value="" style="edgeStyle=orthogonalEdgeStyle;rounded=0;orthogonalLoop=1;jettySize=auto;html=1;fontStyle=1" edge="1" parent="1" source="4uzhlLhh2RCcG2w5_e5X-26" target="4uzhlLhh2RCcG2w5_e5X-33">
          <mxGeometry relative="1" as="geometry" />
        </mxCell>
        <mxCell id="4uzhlLhh2RCcG2w5_e5X-26" value="Product Release" style="rounded=0;whiteSpace=wrap;html=1;fontStyle=1" vertex="1" parent="1">
          <mxGeometry x="630" y="120" width="90" height="60" as="geometry" />
        </mxCell>
        <mxCell id="4uzhlLhh2RCcG2w5_e5X-27" value="" style="edgeStyle=orthogonalEdgeStyle;rounded=0;orthogonalLoop=1;jettySize=auto;html=1;fontStyle=1" edge="1" parent="1" source="4uzhlLhh2RCcG2w5_e5X-28" target="4uzhlLhh2RCcG2w5_e5X-31">
          <mxGeometry relative="1" as="geometry" />
        </mxCell>
        <mxCell id="4uzhlLhh2RCcG2w5_e5X-28" value="Enhancement Maintenance&amp;nbsp;" style="rounded=0;whiteSpace=wrap;html=1;fontStyle=1" vertex="1" parent="1">
          <mxGeometry x="735" y="120" width="90" height="60" as="geometry" />
        </mxCell>
        <mxCell id="4uzhlLhh2RCcG2w5_e5X-29" value="Buying Plot/Area for project" style="rounded=0;whiteSpace=wrap;html=1;fontStyle=1" vertex="1" parent="1">
          <mxGeometry x="70" y="210" width="90" height="150" as="geometry" />
        </mxCell>
        <mxCell id="4uzhlLhh2RCcG2w5_e5X-30" value="" style="edgeStyle=orthogonalEdgeStyle;rounded=0;orthogonalLoop=1;jettySize=auto;html=1;fontSize=14;startArrow=none;startFill=0;endArrow=classic;endFill=1;strokeWidth=2;" edge="1" parent="1" source="4uzhlLhh2RCcG2w5_e5X-31" target="4uzhlLhh2RCcG2w5_e5X-53">
          <mxGeometry relative="1" as="geometry" />
        </mxCell>
        <mxCell id="4uzhlLhh2RCcG2w5_e5X-31" value="Furniture, accessories etc" style="rounded=0;whiteSpace=wrap;html=1;fontStyle=1" vertex="1" parent="1">
          <mxGeometry x="730" y="210" width="100" height="60" as="geometry" />
        </mxCell>
        <mxCell id="4uzhlLhh2RCcG2w5_e5X-32" value="" style="edgeStyle=orthogonalEdgeStyle;rounded=0;orthogonalLoop=1;jettySize=auto;html=1;endArrow=none;endFill=0;fontStyle=1" edge="1" parent="1" source="4uzhlLhh2RCcG2w5_e5X-33" target="4uzhlLhh2RCcG2w5_e5X-34">
          <mxGeometry relative="1" as="geometry" />
        </mxCell>
        <mxCell id="4uzhlLhh2RCcG2w5_e5X-33" value="Operational Acceptance&lt;br&gt;Can start living in the house&amp;nbsp;" style="rounded=0;whiteSpace=wrap;html=1;fontStyle=1" vertex="1" parent="1">
          <mxGeometry x="630" y="210" width="90" height="60" as="geometry" />
        </mxCell>
        <mxCell id="4uzhlLhh2RCcG2w5_e5X-34" value="Acceptance Document by owner for builder" style="rounded=0;whiteSpace=wrap;html=1;fontStyle=1" vertex="1" parent="1">
          <mxGeometry x="630" y="290" width="90" height="60" as="geometry" />
        </mxCell>
        <mxCell id="4uzhlLhh2RCcG2w5_e5X-35" value="" style="edgeStyle=orthogonalEdgeStyle;rounded=0;orthogonalLoop=1;jettySize=auto;html=1;endArrow=none;endFill=0;fontStyle=1" edge="1" parent="1" source="4uzhlLhh2RCcG2w5_e5X-36" target="4uzhlLhh2RCcG2w5_e5X-37">
          <mxGeometry relative="1" as="geometry" />
        </mxCell>
        <mxCell id="4uzhlLhh2RCcG2w5_e5X-36" value="System Test&lt;br&gt;Tesing material and connection" style="rounded=0;whiteSpace=wrap;html=1;fontStyle=1" vertex="1" parent="1">
          <mxGeometry x="510" y="210" width="100" height="60" as="geometry" />
        </mxCell>
        <mxCell id="4uzhlLhh2RCcG2w5_e5X-37" value="Test Summary by supervisor" style="rounded=0;whiteSpace=wrap;html=1;fontStyle=1" vertex="1" parent="1">
          <mxGeometry x="510" y="290" width="100" height="60" as="geometry" />
        </mxCell>
        <mxCell id="4uzhlLhh2RCcG2w5_e5X-38" value="" style="edgeStyle=orthogonalEdgeStyle;rounded=0;orthogonalLoop=1;jettySize=auto;html=1;endArrow=none;endFill=0;fontStyle=1" edge="1" parent="1" source="4uzhlLhh2RCcG2w5_e5X-39" target="4uzhlLhh2RCcG2w5_e5X-40">
          <mxGeometry relative="1" as="geometry" />
        </mxCell>
        <mxCell id="4uzhlLhh2RCcG2w5_e5X-39" value="3D model/ Prototype&amp;nbsp;" style="rounded=0;whiteSpace=wrap;html=1;fontStyle=1" vertex="1" parent="1">
          <mxGeometry x="400" y="210" width="90" height="60" as="geometry" />
        </mxCell>
        <mxCell id="4uzhlLhh2RCcG2w5_e5X-40" value="Model Review by owner/ supervisor&amp;nbsp;" style="rounded=0;whiteSpace=wrap;html=1;fontStyle=1" vertex="1" parent="1">
          <mxGeometry x="400" y="290" width="90" height="60" as="geometry" />
        </mxCell>
        <mxCell id="4uzhlLhh2RCcG2w5_e5X-41" value="" style="edgeStyle=orthogonalEdgeStyle;rounded=0;orthogonalLoop=1;jettySize=auto;html=1;endArrow=none;endFill=0;fontStyle=1" edge="1" parent="1" source="4uzhlLhh2RCcG2w5_e5X-42" target="4uzhlLhh2RCcG2w5_e5X-44">
          <mxGeometry relative="1" as="geometry" />
        </mxCell>
        <mxCell id="4uzhlLhh2RCcG2w5_e5X-42" value="Architecture&lt;br&gt;Interior Design&amp;nbsp;" style="rounded=0;whiteSpace=wrap;html=1;fontStyle=1" vertex="1" parent="1">
          <mxGeometry x="290" y="210" width="90" height="60" as="geometry" />
        </mxCell>
        <mxCell id="4uzhlLhh2RCcG2w5_e5X-43" value="" style="edgeStyle=orthogonalEdgeStyle;rounded=0;orthogonalLoop=1;jettySize=auto;html=1;endArrow=none;endFill=0;fontStyle=1" edge="1" parent="1" source="4uzhlLhh2RCcG2w5_e5X-44" target="4uzhlLhh2RCcG2w5_e5X-45">
          <mxGeometry relative="1" as="geometry" />
        </mxCell>
        <mxCell id="4uzhlLhh2RCcG2w5_e5X-44" value="Design review by owner/ supervisor&amp;nbsp;" style="rounded=0;whiteSpace=wrap;html=1;fontStyle=1" vertex="1" parent="1">
          <mxGeometry x="290" y="290" width="90" height="60" as="geometry" />
        </mxCell>
        <mxCell id="4uzhlLhh2RCcG2w5_e5X-45" value="Detailed Project Development&lt;br&gt;Floor plan" style="rounded=0;whiteSpace=wrap;html=1;fontStyle=1" vertex="1" parent="1">
          <mxGeometry x="290" y="370" width="90" height="60" as="geometry" />
        </mxCell>
        <mxCell id="4uzhlLhh2RCcG2w5_e5X-46" value="" style="edgeStyle=orthogonalEdgeStyle;rounded=0;orthogonalLoop=1;jettySize=auto;html=1;endArrow=none;endFill=0;fontStyle=1" edge="1" parent="1" source="4uzhlLhh2RCcG2w5_e5X-47" target="4uzhlLhh2RCcG2w5_e5X-49">
          <mxGeometry relative="1" as="geometry" />
        </mxCell>
        <mxCell id="4uzhlLhh2RCcG2w5_e5X-47" value="Project Management Plan (Charter)" style="rounded=0;whiteSpace=wrap;html=1;fontStyle=1" vertex="1" parent="1">
          <mxGeometry x="180" y="210" width="90" height="60" as="geometry" />
        </mxCell>
        <mxCell id="4uzhlLhh2RCcG2w5_e5X-48" value="" style="edgeStyle=orthogonalEdgeStyle;rounded=0;orthogonalLoop=1;jettySize=auto;html=1;endArrow=none;endFill=0;fontStyle=1" edge="1" parent="1" source="4uzhlLhh2RCcG2w5_e5X-49" target="4uzhlLhh2RCcG2w5_e5X-51">
          <mxGeometry relative="1" as="geometry" />
        </mxCell>
        <mxCell id="4uzhlLhh2RCcG2w5_e5X-49" value="Functional Requirements&amp;nbsp;&lt;br&gt;Plumbing, Gas connection, electric connection&amp;nbsp;" style="rounded=0;whiteSpace=wrap;html=1;fontStyle=1" vertex="1" parent="1">
          <mxGeometry x="180" y="290" width="90" height="90" as="geometry" />
        </mxCell>
        <mxCell id="4uzhlLhh2RCcG2w5_e5X-50" value="" style="edgeStyle=orthogonalEdgeStyle;rounded=0;orthogonalLoop=1;jettySize=auto;html=1;endArrow=none;endFill=0;fontStyle=1" edge="1" parent="1" source="4uzhlLhh2RCcG2w5_e5X-51" target="4uzhlLhh2RCcG2w5_e5X-52">
          <mxGeometry relative="1" as="geometry" />
        </mxCell>
        <mxCell id="4uzhlLhh2RCcG2w5_e5X-51" value="Technical Requirements&amp;nbsp;&lt;br&gt;Raw Materials&amp;nbsp;" style="rounded=0;whiteSpace=wrap;html=1;fontStyle=1" vertex="1" parent="1">
          <mxGeometry x="180" y="390" width="90" height="60" as="geometry" />
        </mxCell>
        <mxCell id="4uzhlLhh2RCcG2w5_e5X-52" value="Requirements review and approval" style="rounded=0;whiteSpace=wrap;html=1;fontStyle=1" vertex="1" parent="1">
          <mxGeometry x="180" y="470" width="90" height="60" as="geometry" />
        </mxCell>
        <mxCell id="4uzhlLhh2RCcG2w5_e5X-53" value="Pest Control etc" style="rounded=0;whiteSpace=wrap;html=1;fontStyle=1" vertex="1" parent="1">
          <mxGeometry x="730" y="290" width="100" height="60" as="geometry" />
        </mxCell>
      </root>
    </mxGraphModel>
  </diagram>
</mxfile>
